#!OML:ASF H:\Not Pregnant\Project 1\Capture day 1\Session 1\non-pregnant.ASF
:FULLY-SPECIFIED
:DEGREES
341
root -5.70204 16.3574 34.889 153.349 -83.4696 -139.911
lowerback -12.8655 3.53189 4.02713
upperback -5.91595 3.93556 -0.386926
thorax 1.28541 1.77603 -2.11942
lowerneck 10.2353 -6.56882 -31.2606
upperneck -7.17444 -12.245 37.8726
head 1.15259 -7.4933 19.4709
rclavicle -3.89121e-014 1.98785e-015
rhumerus -35.7363 18.3379 -99.9534
rradius 28.842
rwrist 31.3851
rhand -8.55889 9.32988
rfingers 7.12502
rthumb 17.371 -19.9139
lclavicle -3.89121e-014 1.98785e-015
lhumerus -41.1355 -8.24933 89.8534
lradius 34.2815
lwrist 50.5844
lhand 12.9772 -4.88848
lfingers 7.12502
lthumb 37.9443 20.9259
rfemur 0 0 0
rtibia 0
rfoot 0 0
rtoes 0
lfemur -16.5052 6.99439 -16.787
ltibia 14.95
lfoot -13.2442 -6.65452
ltoes -16.8248
342
root -5.70082 16.3581 34.8907 153.076 -83.5657 -139.626
lowerback -12.8323 3.53247 4.05217
upperback -5.93039 3.93646 -0.424512
thorax 1.25659 1.77508 -2.1745
lowerneck 10.2257 -6.58271 -31.2445
upperneck -7.12387 -12.2729 37.8762
head 1.17745 -7.50722 19.4628
rclavicle 4.34841e-014 2.06736e-014
rhumerus -35.4903 17.2787 -99.374
rradius 28.6704
rwrist 31.1497
rhand -8.35472 9.18833
rfingers 7.12502
rthumb 17.5675 -20.038
lclavicle 4.34841e-014 2.06736e-014
lhumerus -41.168 -8.3187 89.8744
lradius 34.2604
lwrist 50.3148
lhand 12.9077 -5.09477
lfingers 7.12502
lthumb 37.8787 20.7374
rfemur 0 0 0
rtibia 0
rfoot 0 0
rtoes 0
lfemur -16.5325 6.96689 -16.8344
ltibia 14.9257
lfoot -13.2176 -6.73499
ltoes -16.7718
343
root -5.6991 16.359 34.8935 152.75 -83.6559 -139.278
lowerback -12.8094 3.52881 4.08617
upperback -5.94463 3.92962 -0.449948
thorax 1.23274 1.77019 -2.22255
lowerneck 10.2149 -6.59334 -31.2346
upperneck -7.08102 -12.2935 37.8718
head 1.19731 -7.51642 19.4528
rclavicle 3.37934e-015 1.59028e-015
rhumerus -35.2636 16.2553 -98.8032
rradius 28.5212
rwrist 30.8632
rhand -8.13629 9.03643
rfingers 7.12502
rthumb 17.7777 -20.1709
lclavicle 3.37934e-015 1.59028e-015
lhumerus -41.1971 -8.37129 89.9145
lradius 34.2045
lwrist 49.966
lhand 12.8015 -5.434
lfingers 7.12502
lthumb 37.7784 20.4252
rfemur 0 0 0
rtibia 0
rfoot 0 0
rtoes 0
lfemur -16.5799 6.89439 -16.8719
ltibia 14.9114
lfoot -13.1819 -6.76874
ltoes -16.7137
344
root -5.69697 16.36 34.8968 152.267 -83.7346 -138.763
lowerback -12.7991 3.52379 4.13376
upperback -5.95573 3.91819 -0.458691
thorax 1.21826 1.76308 -2.26076
lowerneck 10.2059 -6.60075 -31.2347
upperneck -7.04815 -12.3085 37.8662
head 1.21273 -7.52247 19.4457
rclavicle -2.25372e-014 -5.1684e-015
rhumerus -35.0616 15.309 -98.2548
rradius 28.4027
rwrist 30.4943
rhand -7.93499 8.86582
rfingers 7.12502
rthumb 17.9714 -20.3239
lclavicle -2.25372e-014 -5.1684e-015
lhumerus -41.2162 -8.40372 89.962
lradius 34.1469
lwrist 49.695
lhand 12.7147 -5.73746
lfingers 7.12502
lthumb 37.6964 20.1437
rfemur 0 0 0
rtibia 0
rfoot 0 0
rtoes 0
lfemur -16.6417 6.77839 -16.8827
ltibia 14.9064
lfoot -13.1392 -6.75499
ltoes -16.6735
345
root -5.69428 16.3613 34.9024 151.683 -83.8154 -138.133
lowerback -12.8074 3.51829 4.2036
upperback -5.96294 3.90217 -0.457453
thorax 1.21811 1.75363 -2.30062
lowerneck 10.1946 -6.60678 -31.2425
upperneck -7.0269 -12.318 37.8558
head 1.22365 -7.5249 19.4385
rclavicle 1.73688e-014 3.97569e-015
rhumerus -34.8906 14.4904 -97.7396
rradius 28.3287
rwrist 29.9894
rhand -7.74767 8.70403
rfingers 7.12502
rthumb 18.1516 -20.469
lclavicle 1.73688e-014 3.97569e-015
lhumerus -41.2172 -8.4089 90.0153
lradius 34.1019
lwrist 49.5573
lhand 12.6638 -5.9306
lfingers 7.12502
lthumb 37.6483 19.9635
rfemur 0 0 0
rtibia 0
rfoot 0 0
rtoes 0
lfemur -16.7263 6.59553 -16.8862
ltibia 14.91
lfoot -13.086 -6.68148
ltoes -16.6549
346
root -5.69193 16.3625 34.9076 151.093 -83.8959 -137.5
lowerback -12.8196 3.51208 4.26514
upperback -5.967 3.88604 -0.455824
thorax 1.22282 1.74446 -2.33517
lowerneck 10.1891 -6.61185 -31.2363
upperneck -7.01572 -12.3234 37.8429
head 1.22786 -7.52586 19.428
rclavicle 4.69877e-014 -9.93923e-015
rhumerus -34.7478 13.7519 -97.2673
rradius 28.2877
rwrist 29.4005
rhand -7.57554 8.55793
rfingers 7.12502
rthumb 18.3172 -20.5996
lclavicle 4.69877e-014 -9.93923e-015
lhumerus -41.211 -8.40781 90.0532
lradius 34.0741
lwrist 49.5689
lhand 12.6664 -6.00078
lfingers 7.12502
lthumb 37.6507 19.8926
rfemur 0 0 0
rtibia 0
rfoot 0 0
rtoes 0
lfemur -16.808 6.42648 -16.8911
ltibia 14.9195
lfoot -13.0426 -6.61739
ltoes -16.6786
347
root -5.6914 16.3627 34.9075 150.554 -83.9641 -136.958
lowerback -12.8289 3.49693 4.24805
upperback -5.95484 3.86756 -0.437095
thorax 1.23697 1.7365 -2.30802
lowerneck 10.1909 -6.6127 -31.2277
upperneck -7.01066 -12.3235 37.8354
head 1.22737 -7.52529 19.4218
rclavicle 1.7667e-014 1.19271e-014
rhumerus -34.6299 13.0812 -96.8318
rradius 28.2765
rwrist 28.7297
rhand -7.40956 8.43349
rfingers 7.12502
rthumb 18.4769 -20.709
lclavicle 1.7667e-014 1.19271e-014
lhumerus -41.2025 -8.41458 90.0854
lradius 34.0487
lwrist 49.5634
lhand 12.6827 -6.00724
lfingers 7.12502
lthumb 37.6661 19.8821
rfemur 0 0 0
rtibia 0
rfoot 0 0
rtoes 0
lfemur -16.8364 6.39053 -16.8892
ltibia 14.9297
lfoot -13.0343 -6.67358
ltoes -16.6642
348
root -5.69259 16.3622 34.9029 150.068 -84.0201 -136.501
lowerback -12.8395 3.47114 4.16192
upperback -5.92817 3.84303 -0.400246
thorax 1.26129 1.72758 -2.22385
lowerneck 10.1966 -6.60916 -31.2195
upperneck -7.0105 -12.3175 37.8313
head 1.22283 -7.52227 19.4192
rclavicle -7.87684e-015 -4.77083e-015
rhumerus -34.5246 12.4466 -96.4233
rradius 28.2778
rwrist 28.0613
rhand -7.29066 8.30254
rfingers 7.12502
rthumb 18.5913 -20.8291
lclavicle -7.87684e-015 -4.77083e-015
lhumerus -41.1959 -8.42716 90.1213
lradius 34.0148
lwrist 49.4895
lhand 12.6828 -6.02955
lfingers 7.12502
lthumb 37.6662 19.8597
rfemur 0 0 0
rtibia 0
rfoot 0 0
rtoes 0
lfemur -16.8203 6.47247 -16.8815
ltibia 14.9415
lfoot -13.0575 -6.83644
ltoes -16.614
